HIERARCHY
ROOT Hips
{
	OFFSET 0.000000 0.000000 0.000000
	CHANNELS 6 Xposition Yposition Zposition Xrotation Yrotation Zrotation
	JOINT LeftUpLeg_virtual
	{
		OFFSET 0.000000 0.000000 0.000000
		CHANNELS 3 Xrotation Yrotation Zrotation
		JOINT LeftUpLeg
		{
			OFFSET 15.427100 -6.655098 0.678600
			CHANNELS 3 Xrotation Yrotation Zrotation
			JOINT LeftLeg
			{
				OFFSET 4.081073 -39.591068 13.024000
				CHANNELS 3 Xrotation Yrotation Zrotation
				JOINT LeftFoot
				{
					OFFSET -4.081074 -37.707932 -15.979700
					CHANNELS 3 Xrotation Yrotation Zrotation
					JOINT LeftToeBase
					{
						OFFSET 5.346399 -15.068900 20.645000
						CHANNELS 3 Xrotation Yrotation Zrotation
						JOINT LeftToe_End
						{
							OFFSET 2.754700 0.931300 11.300900
							CHANNELS 3 Xrotation Yrotation Zrotation
							End Site
							{
								OFFSET 0 0 0
							}
						}
					}
				}
			}
		}
	}
	JOINT RightUpLeg_virtual
	{
		OFFSET 0.000000 0.000000 0.000000
		CHANNELS 3 Xrotation Yrotation Zrotation
		JOINT RightUpLeg
		{
			OFFSET -15.569500 -6.655098 0.678600
			CHANNELS 3 Xrotation Yrotation Zrotation
			JOINT RightLeg
			{
				OFFSET -4.081825 -39.591045 13.023800
				CHANNELS 3 Xrotation Yrotation Zrotation
				JOINT RightFoot
				{
					OFFSET 4.081824 -37.707954 -15.979600
					CHANNELS 3 Xrotation Yrotation Zrotation
					JOINT RightToeBase
					{
						OFFSET -5.346400 -15.068900 20.645000
						CHANNELS 3 Xrotation Yrotation Zrotation
						JOINT RightToe_End
						{
							OFFSET -2.754700 0.931300 11.300900
							CHANNELS 3 Xrotation Yrotation Zrotation
							End Site
							{
								OFFSET 0 0 0
							}
						}
					}
				}
			}
		}
	}
	JOINT Spine_virtual
	{
		OFFSET 0.000000 0.000000 0.000000
		CHANNELS 3 Xrotation Yrotation Zrotation
		JOINT Spine
		{
			OFFSET -0.279200 12.230698 -2.892100
			CHANNELS 3 Xrotation Yrotation Zrotation
			JOINT Spine1
			{
				OFFSET -0.232667 10.192268 -1.242267
				CHANNELS 3 Xrotation Yrotation Zrotation
				JOINT Spine1_split
				{
					OFFSET -0.232667 10.192268 -1.242267
					CHANNELS 3 Xrotation Yrotation Zrotation
					JOINT Spine2
					{
						OFFSET -0.232667 10.192268 -1.242267
						CHANNELS 3 Xrotation Yrotation Zrotation
						JOINT Neck_virtual
						{
							OFFSET 0.000000 0.000000 0.000000
							CHANNELS 3 Xrotation Yrotation Zrotation
							JOINT Neck
							{
								OFFSET -0.418800 17.814194 8.416900
								CHANNELS 3 Xrotation Yrotation Zrotation
								JOINT Head
								{
									OFFSET 0.000000 7.031097 3.806800
									CHANNELS 3 Xrotation Yrotation Zrotation
									JOINT HeadTop_End
									{
										OFFSET 0.000000 24.646606 12.978600
										CHANNELS 3 Xrotation Yrotation Zrotation
										End Site
										{
											OFFSET 0 0 0
										}
									}
								}
							}
						}
						JOINT LeftShoulder_virtual
						{
							OFFSET 0.000000 0.000000 0.000000
							CHANNELS 3 Xrotation Yrotation Zrotation
							JOINT LeftShoulder
							{
								OFFSET 8.476499 7.247704 -3.868750
								CHANNELS 3 Xrotation Yrotation Zrotation
								JOINT LeftShoulder_split
								{
									OFFSET 8.476499 7.247704 -3.868750
									CHANNELS 3 Xrotation Yrotation Zrotation
									JOINT LeftArm
									{
										OFFSET 9.308998 -2.777710 0.208600
										CHANNELS 3 Xrotation Yrotation Zrotation
										JOINT LeftForeArm
										{
											OFFSET 29.972298 0.000000 0.000000
											CHANNELS 3 Xrotation Yrotation Zrotation
											JOINT LeftHand
											{
												OFFSET 26.026505 0.000000 0.000000
												CHANNELS 3 Xrotation Yrotation Zrotation
												End Site
												{
													OFFSET 0 0 0
												}
											}
										}
									}
								}
							}
						}
						JOINT RightShoulder_virtual
						{
							OFFSET 0.000000 0.000000 0.000000
							CHANNELS 3 Xrotation Yrotation Zrotation
							JOINT RightShoulder
							{
								OFFSET -7.570500 7.247704 -3.868750
								CHANNELS 3 Xrotation Yrotation Zrotation
								JOINT RightShoulder_split
								{
									OFFSET -7.570500 7.247704 -3.868750
									CHANNELS 3 Xrotation Yrotation Zrotation
									JOINT RightArm
									{
										OFFSET -9.308998 -2.777710 0.208500
										CHANNELS 3 Xrotation Yrotation Zrotation
										JOINT RightForeArm
										{
											OFFSET -29.972300 0.000000 0.000000
											CHANNELS 3 Xrotation Yrotation Zrotation
											JOINT RightHand
											{
												OFFSET -26.026505 0.000000 0.000000
												CHANNELS 3 Xrotation Yrotation Zrotation
												End Site
												{
													OFFSET 0 0 0
												}
											}
										}
									}
								}
							}
						}
					}
				}
			}
		}
	}
}
MOTION
Frames: 9
Frame Time: 0.03333333
0.847438 88.754639 -0.438599 0.000000 0.000000 0.000000 -1.697248 -26.357437 0.410403 -24.227888 24.447983 13.475203 24.126200 7.204416 11.509045 -2.939277 1.457158 -15.252852 1.302712 0.024687 -2.157276 0.000000 0.000000 0.000000 -2.266607 -25.314202 0.513779 -13.646777 -18.976530 -8.187056 24.387520 -0.956504 -10.280754 -13.040189 -2.081155 12.250121 -0.898544 0.132145 0.041799 0.000000 0.000000 0.000000 -1.022557 -27.322845 0.340975 4.356900 -1.729293 0.596168 0.703146 -0.664538 0.142690 1.053568 -0.452624 0.294974 0.000000 0.000000 0.000000 0.799750 -0.759832 0.213380 -2.338797 1.476415 3.347150 17.574471 23.909965 -12.565330 0.000000 0.000000 0.000000 1.351942 -0.722204 0.182279 -0.652623 2.410291 4.370154 -1.505922 -0.007043 -0.290909 -53.326999 -2.137035 -49.402427 -13.278859 -87.525828 -12.875096 0.000000 0.000000 0.000000 2.170150 -0.398176 0.047979 -1.104936 -11.020509 10.935955 0.831915 1.798179 0.107284 -63.832516 64.701678 79.383559 -20.161848 87.268699 20.158086 0.000000 0.000000 0.000000 
0.852805 88.732178 -0.434410 0.000000 0.000000 0.000000 -1.671752 -26.346488 0.466006 -24.218186 24.464092 13.442709 24.131548 7.178809 11.507722 -2.958813 1.403333 -15.266280 1.310013 0.026326 -2.166956 0.000000 0.000000 0.000000 -2.249500 -25.267545 0.563541 -13.747163 -19.178399 -8.168499 24.487548 -0.854577 -10.432586 -13.056167 -2.099331 12.201859 -0.889206 0.128594 0.043206 0.000000 0.000000 0.000000 -1.002944 -27.333570 0.384620 4.339871 -1.765653 0.608709 0.683946 -0.674929 0.140149 1.055239 -0.449803 0.284177 0.000000 0.000000 0.000000 0.796021 -0.769846 0.208567 -2.323873 1.493910 3.348460 17.592525 23.943541 -12.581683 0.000000 0.000000 0.000000 1.339437 -0.732989 0.183718 -0.656049 2.429889 4.281936 -1.518402 -0.023011 -0.286444 -53.311314 -2.199738 -49.339244 -12.785504 -87.404524 -12.377012 0.000000 0.000000 0.000000 2.154281 -0.414344 0.044672 -1.092835 -11.029347 10.921250 0.837324 1.809942 0.096844 -63.852631 64.735488 79.344866 -20.128482 87.273657 20.133383 0.000000 0.000000 0.000000 
0.865273 88.702591 -0.439354 0.000000 0.000000 0.000000 -1.639566 -26.350050 0.523994 -24.231947 24.493639 13.428460 24.142490 7.136935 11.503051 -2.985021 1.333435 -15.278727 1.307323 0.025319 -2.173055 0.000000 0.000000 0.000000 -2.221783 -25.235565 0.619304 -13.868779 -19.409564 -8.158962 24.576715 -0.739382 -10.585566 -13.073362 -2.102511 12.153178 -0.864393 0.125248 0.044868 0.000000 0.000000 0.000000 -0.969136 -27.349181 0.436746 4.321834 -1.804266 0.623222 0.661129 -0.686553 0.138747 1.054577 -0.439871 0.275186 0.000000 0.000000 0.000000 0.794177 -0.781957 0.203648 -2.309405 1.504381 3.356968 17.605680 23.966447 -12.591167 0.000000 0.000000 0.000000 1.325672 -0.746417 0.184928 -0.654217 2.435579 4.189425 -1.526997 -0.039038 -0.273670 -53.313325 -2.263998 -49.262541 -12.276309 -87.299045 -11.866526 0.000000 0.000000 0.000000 2.138954 -0.431786 0.041624 -1.081492 -11.026048 10.894153 0.835854 1.835168 0.086333 -63.851579 64.746075 79.297656 -20.152685 87.281130 20.164125 0.000000 0.000000 0.000000 
0.882475 88.672241 -0.449879 0.000000 0.000000 0.000000 -1.601851 -26.369014 0.580957 -24.255277 24.533939 13.429159 24.148315 7.090987 11.493161 -3.018338 1.266238 -15.287592 1.303129 0.022055 -2.175840 0.000000 0.000000 0.000000 -2.184023 -25.227843 0.677724 -14.006149 -19.640166 -8.165746 24.645199 -0.606071 -10.726693 -13.065610 -2.082678 12.139414 -0.872098 0.122350 0.040087 0.000000 0.000000 0.000000 -0.927314 -27.372965 0.494037 4.299796 -1.844268 0.641641 0.636433 -0.698883 0.139515 1.052729 -0.422827 0.265227 0.000000 0.000000 0.000000 0.793785 -0.795813 0.200772 -2.291983 1.508897 3.365584 17.617969 23.979249 -12.600365 0.000000 0.000000 0.000000 1.312094 -0.761904 0.187153 -0.647439 2.430221 4.095851 -1.533115 -0.060756 -0.253374 -53.346687 -2.325640 -49.175337 -11.683651 -87.199980 -11.274767 0.000000 0.000000 0.000000 2.126109 -0.449336 0.040152 -1.072330 -11.005760 10.842172 0.834930 1.868132 0.074518 -63.861463 64.740549 79.273730 -20.137440 87.276096 20.150030 0.000000 0.000000 0.000000 
0.896646 88.649559 -0.461647 0.000000 0.000000 0.000000 -1.564331 -26.410637 0.631804 -24.268560 24.575987 13.439257 24.134707 7.057047 11.481822 -3.056407 1.221631 -15.293058 1.301489 0.017599 -2.174684 0.000000 0.000000 0.000000 -2.142107 -25.249587 0.733870 -14.144616 -19.840795 -8.181032 24.684300 -0.463650 -10.843775 -13.031708 -2.044519 12.169795 -0.920965 0.119567 0.028205 0.000000 0.000000 0.000000 -0.882843 -27.405967 0.550986 4.273031 -1.884680 0.666649 0.611313 -0.711597 0.144177 1.045356 -0.400186 0.255903 0.000000 0.000000 0.000000 0.794420 -0.811284 0.201419 -2.266656 1.512269 3.366240 17.635745 23.983668 -12.617501 0.000000 0.000000 0.000000 1.300349 -0.778907 0.192115 -0.637428 2.417631 4.006250 -1.531239 -0.071070 -0.224392 -53.412718 -2.379636 -49.081422 -11.039936 -87.097814 -10.629930 0.000000 0.000000 0.000000 2.117379 -0.466665 0.041690 -1.066942 -10.964452 10.749402 0.836539 1.897638 0.072076 -63.923194 64.730864 79.314984 -19.981203 87.247498 19.989589 0.000000 0.000000 0.000000 
0.904413 88.638245 -0.479179 0.000000 0.000000 0.000000 -1.527746 -26.465600 0.674511 -24.257246 24.614339 13.452373 24.096813 7.044666 11.470776 -3.094380 1.211529 -15.295369 1.299457 0.012936 -2.169577 0.000000 0.000000 0.000000 -2.099452 -25.300245 0.782649 -14.260139 -19.986518 -8.197690 24.696219 -0.327556 -10.930200 -12.998816 -1.998677 12.215238 -0.975863 0.117080 0.013467 0.000000 0.000000 0.000000 -0.838023 -27.448889 0.604687 4.239308 -1.923831 0.700091 0.588227 -0.725002 0.153600 1.039064 -0.375381 0.251569 0.000000 0.000000 0.000000 0.794680 -0.828859 0.207248 -2.230759 1.517749 3.352745 17.660028 23.984672 -12.648260 0.000000 0.000000 0.000000 1.290504 -0.797401 0.201391 -0.625628 2.403213 3.919841 -1.527202 -0.069503 -0.187545 -53.510909 -2.425286 -48.989470 -10.332004 -86.981694 -9.918083 0.000000 0.000000 0.000000 2.112891 -0.484054 0.047066 -1.065429 -10.902004 10.610365 0.841542 1.919221 0.080567 -64.050536 64.721063 79.437033 -19.654414 87.187214 19.653000 0.000000 0.000000 0.000000 
0.905248 88.639420 -0.499645 0.000000 0.000000 0.000000 -1.495551 -26.523863 0.707301 -24.219875 24.640341 13.465703 24.037737 7.058229 11.461317 -3.121101 1.237068 -15.303761 1.294998 0.009340 -2.161316 0.000000 0.000000 0.000000 -2.061961 -25.374820 0.820958 -14.337508 -20.067769 -8.209119 24.694030 -0.226047 -10.978207 -12.991029 -1.964306 12.228846 -0.984929 0.115714 0.003862 0.000000 0.000000 0.000000 -0.791908 -27.497073 0.654959 4.199052 -1.959892 0.742984 0.567887 -0.739796 0.168255 1.036993 -0.356482 0.246225 0.000000 0.000000 0.000000 0.791888 -0.848719 0.219093 -2.181559 1.530487 3.320638 17.693704 23.987225 -12.695840 0.000000 0.000000 0.000000 1.281276 -0.817169 0.215509 -0.613704 2.391301 3.835796 -1.518376 -0.049598 -0.150440 -53.622330 -2.459781 -48.903963 -9.649489 -86.845951 -9.226634 0.000000 0.000000 0.000000 2.110489 -0.501909 0.057493 -1.067266 -10.822278 10.428732 0.845264 1.936713 0.096661 -64.254902 64.714929 79.648864 -19.112684 87.087316 19.096587 0.000000 0.000000 0.000000 
0.898669 88.650551 -0.520264 0.000000 0.000000 0.000000 -1.469708 -26.584025 0.729696 -24.162081 24.646051 13.476036 23.970882 7.095171 11.455052 -3.129334 1.288934 -15.322618 1.285975 0.007148 -2.150830 0.000000 0.000000 0.000000 -2.036254 -25.466842 0.848568 -14.380786 -20.081478 -8.215885 24.683146 -0.172115 -10.980198 -13.007355 -1.952682 12.193769 -0.935216 0.115854 0.001572 0.000000 0.000000 0.000000 -0.750304 -27.549121 0.698815 4.153960 -1.990507 0.793283 0.551245 -0.755869 0.187562 1.037143 -0.349907 0.248170 0.000000 0.000000 0.000000 0.784034 -0.870132 0.236385 -2.122815 1.551330 3.270071 17.734610 23.994656 -12.757145 0.000000 0.000000 0.000000 1.272750 -0.838031 0.233861 -0.602313 2.383168 3.751491 -1.510037 -0.016096 -0.120748 -53.727812 -2.483548 -48.826697 -9.035511 -86.688256 -8.599763 0.000000 0.000000 0.000000 2.107738 -0.519810 0.072814 -1.071701 -10.730922 10.218110 0.847888 1.953301 0.115513 -64.520808 64.707723 79.940288 -18.343183 86.937202 18.310014 0.000000 0.000000 0.000000 
0.885183 88.668602 -0.541546 0.000000 0.000000 0.000000 -1.452517 -26.641421 0.745190 -24.092886 24.626449 13.475881 23.912258 7.149766 11.453412 -3.125940 1.359452 -15.348514 1.279368 0.006526 -2.141694 0.000000 0.000000 0.000000 -2.021173 -25.557241 0.867812 -14.391531 -20.034678 -8.213934 24.670095 -0.163216 -10.937947 -13.036234 -1.962878 12.129789 -0.864175 0.117075 0.005781 0.000000 0.000000 0.000000 -0.715090 -27.599092 0.735004 4.106458 -2.012725 0.846289 0.539210 -0.772591 0.209123 1.038460 -0.350177 0.249703 0.000000 0.000000 0.000000 0.769555 -0.891345 0.257096 -2.059291 1.579147 3.205627 17.779727 24.007898 -12.825584 0.000000 0.000000 0.000000 1.264257 -0.858731 0.254184 -0.591451 2.381618 3.666580 -1.504986 0.025649 -0.102548 -53.806441 -2.502134 -48.755461 -8.521406 -86.516087 -8.071054 0.000000 0.000000 0.000000 2.102214 -0.536400 0.091215 -1.077244 -10.635441 10.002580 0.847499 1.972350 0.128955 -64.809001 64.698830 80.270917 -17.428501 86.740814 17.377688 0.000000 0.000000 0.000000 
